<?xml version="1.0" encoding="utf-8"?>
<!-- Generator: Adobe Illustrator 23.0.2, SVG Export Plug-In . SVG Version: 6.00 Build 0)  -->
<svg version="1.1" id="Layer_1" xmlns="http://www.w3.org/2000/svg" xmlns:xlink="http://www.w3.org/1999/xlink" x="0px" y="0px"
	 viewBox="0 0 504 216" enable-background="new 0 0 504 216" xml:space="preserve" role="img">
<title id="macivor-technical-logo">MacIvor Technical Logo</title>
<g>
	<g>
		<g>
			<g>
				<path fill="#7B7BB7" d="M187.23,76.64c0.05-1.19,0.27-2.19,0.68-3.01c0.41-0.81,0.93-1.44,1.57-1.9
					c0.64-0.45,1.37-0.77,2.18-0.97c0.81-0.19,1.67-0.29,2.57-0.29c1.86,0,3.43,0.26,4.72,0.79c1.29,0.53,2.15,0.98,2.58,1.36
					c1.72,3.53,3.52,7.29,5.4,11.27c1.88,3.98,3.8,7.83,5.76,11.55c1.72-3.43,3.4-6.82,5.04-10.16c1.65-3.34,3.16-6.51,4.54-9.52
					c0.9-2.05,2.01-3.45,3.33-4.19c1.31-0.74,2.8-1.11,4.47-1.11c1.81,0,3.4,0.25,4.76,0.75c1.36,0.5,2.23,0.89,2.61,1.18
					l2.72,47.15h-12.02l-1.65-29.33c-0.86,1.77-1.74,3.58-2.65,5.44c-0.91,1.86-1.78,3.7-2.61,5.51c-0.83,1.81-1.62,3.54-2.36,5.19
					c-0.74,1.65-1.4,3.11-1.97,4.4h-8.87c-0.52-1.29-1.18-2.79-1.97-4.51c-0.79-1.72-1.61-3.51-2.47-5.37
					c-0.86-1.86-1.74-3.71-2.65-5.55c-0.91-1.83-1.74-3.52-2.5-5.04l-1.57,29.26H184.8L187.23,76.64z"/>
				<path fill="#7B7BB7" d="M282.17,119.36c-0.29,0.1-0.93,0.2-1.93,0.32c-1,0.12-2.25,0.25-3.76,0.39
					c-1.5,0.14-3.22,0.26-5.15,0.36c-1.93,0.09-3.97,0.14-6.12,0.14c-3.63,0-6.63-0.32-9.01-0.97c-2.39-0.64-4.29-1.51-5.72-2.61
					c-1.43-1.1-2.43-2.37-3-3.83c-0.57-1.45-0.86-2.99-0.86-4.61c0-4.39,1.41-7.52,4.22-9.41c2.81-1.88,7.27-2.83,13.38-2.83
					c1.53,0,2.8,0.02,3.83,0.07c1.02,0.05,1.87,0.12,2.54,0.22c0-1.67-0.68-2.98-2.04-3.94c-1.36-0.95-3.61-1.43-6.76-1.43
					c-1.48,0-2.78,0.08-3.9,0.25c-1.12,0.17-2.08,0.37-2.86,0.61c-0.79,0.24-1.42,0.48-1.9,0.72c-0.48,0.24-0.81,0.43-1,0.57
					c-0.1-0.09-0.29-0.29-0.57-0.57c-0.29-0.29-0.57-0.66-0.86-1.11c-0.29-0.45-0.55-0.97-0.79-1.54c-0.24-0.57-0.36-1.19-0.36-1.86
					c0-4.15,4.24-6.22,12.74-6.22c2.77,0,5.37,0.25,7.8,0.75c2.43,0.5,4.54,1.36,6.33,2.58c1.79,1.22,3.2,2.83,4.22,4.83
					c1.02,2,1.54,4.51,1.54,7.51V119.36z M270.65,104.4c-0.43-0.09-1.06-0.18-1.9-0.25c-0.83-0.07-2.09-0.11-3.76-0.11
					c-1.43,0-2.6,0.12-3.51,0.36c-0.91,0.24-1.61,0.56-2.11,0.97c-0.5,0.41-0.85,0.87-1.04,1.4c-0.19,0.52-0.29,1.07-0.29,1.65
					c0,0.43,0.07,0.88,0.21,1.36c0.14,0.48,0.45,0.91,0.93,1.29c0.48,0.38,1.19,0.7,2.15,0.97s2.22,0.39,3.79,0.39
					c1.24,0,2.38-0.04,3.43-0.11c1.05-0.07,1.74-0.15,2.08-0.25V104.4z"/>
				<path fill="#7B7BB7" d="M323.02,116.42c-0.53,0.33-1.22,0.74-2.08,1.22c-0.86,0.48-1.9,0.93-3.11,1.36
					c-1.22,0.43-2.61,0.8-4.19,1.11c-1.57,0.31-3.32,0.46-5.22,0.46c-2.57,0-5.07-0.41-7.48-1.22c-2.41-0.81-4.52-2.01-6.33-3.61
					c-1.81-1.6-3.27-3.6-4.36-6.01c-1.1-2.41-1.65-5.21-1.65-8.41c0-3.05,0.54-5.78,1.61-8.19c1.07-2.41,2.53-4.42,4.36-6.05
					c1.84-1.62,3.98-2.86,6.44-3.72c2.46-0.86,5.07-1.29,7.83-1.29c2.53,0,4.9,0.32,7.12,0.97c2.22,0.64,3.87,1.51,4.97,2.61
					c0.52,0.53,0.94,1.09,1.25,1.68c0.31,0.6,0.47,1.3,0.47,2.11s-0.14,1.55-0.43,2.22c-0.29,0.67-0.64,1.26-1.07,1.79
					c-0.43,0.52-0.87,0.99-1.32,1.4c-0.45,0.41-0.85,0.7-1.18,0.89c-0.86-0.86-2.05-1.66-3.58-2.4c-1.53-0.74-3.34-1.11-5.44-1.11
					c-1.24,0-2.42,0.19-3.54,0.57c-1.12,0.38-2.1,0.95-2.93,1.72c-0.83,0.76-1.5,1.72-2,2.86c-0.5,1.15-0.75,2.46-0.75,3.94
					c0,1.57,0.25,2.92,0.75,4.04c0.5,1.12,1.17,2.04,2,2.75c0.83,0.72,1.83,1.24,2.97,1.57c1.15,0.34,2.36,0.5,3.65,0.5
					c1.1,0,2.11-0.11,3.04-0.32c0.93-0.21,1.75-0.46,2.47-0.75c0.72-0.29,1.31-0.56,1.79-0.82c0.48-0.26,0.79-0.46,0.93-0.61
					L323.02,116.42z"/>
				<path fill="#7B7BB7" d="M362.23,119.57c-1.48-2.62-2.92-5.32-4.33-8.08s-2.68-5.35-3.83-7.76c-1.15-2.41-2.1-4.46-2.86-6.15
					c-0.76-1.69-1.24-2.78-1.43-3.25c-0.38-0.95-0.8-2.03-1.25-3.22c-0.45-1.19-0.68-2.26-0.68-3.22c0-1.33,0.48-2.47,1.43-3.4
					c0.95-0.93,2.39-1.4,4.29-1.4c1.53,0,2.77,0.16,3.72,0.47c0.95,0.31,1.5,0.51,1.65,0.61c0.81,2.34,1.67,4.7,2.58,7.08
					c0.91,2.39,1.78,4.59,2.61,6.62c0.83,2.03,1.58,3.82,2.25,5.37c0.67,1.55,1.14,2.64,1.43,3.26c0.29-0.62,0.74-1.68,1.36-3.18
					c0.62-1.5,1.3-3.17,2.04-5.01c0.74-1.84,1.48-3.67,2.22-5.51c0.74-1.84,1.37-3.4,1.9-4.69c0.29-0.72,0.61-1.38,0.97-2
					c0.36-0.62,0.79-1.16,1.29-1.61c0.5-0.45,1.11-0.8,1.82-1.04c0.72-0.24,1.6-0.36,2.65-0.36c0.95,0,1.81,0.1,2.58,0.29
					c0.76,0.19,1.43,0.41,2,0.64c0.57,0.24,1.02,0.46,1.36,0.68c0.33,0.21,0.55,0.35,0.64,0.39c-0.19,0.86-0.64,2.16-1.36,3.9
					c-0.72,1.74-1.56,3.73-2.54,5.97c-0.98,2.24-2.04,4.59-3.18,7.05c-1.15,2.46-2.27,4.83-3.36,7.12c-1.1,2.29-2.12,4.35-3.08,6.19
					c-0.95,1.84-1.69,3.26-2.22,4.26H362.23z"/>
				<path fill="#7B7BB7" d="M390.78,101.33c0-2.77,0.52-5.32,1.57-7.66c1.05-2.34,2.49-4.36,4.33-6.08c1.84-1.72,3.97-3.06,6.4-4.04
					c2.43-0.98,5.06-1.47,7.87-1.47c2.77,0,5.38,0.49,7.83,1.47c2.46,0.98,4.6,2.32,6.44,4.04c1.84,1.72,3.28,3.74,4.33,6.08
					c1.05,2.34,1.57,4.89,1.57,7.66s-0.53,5.32-1.57,7.65c-1.05,2.34-2.49,4.36-4.33,6.08c-1.84,1.72-3.98,3.07-6.44,4.04
					s-5.07,1.47-7.83,1.47c-2.82,0-5.44-0.49-7.87-1.47c-2.43-0.98-4.57-2.32-6.4-4.04c-1.84-1.72-3.28-3.74-4.33-6.08
					C391.31,106.65,390.78,104.09,390.78,101.33z M410.96,110.27c1.19,0,2.3-0.23,3.33-0.68c1.02-0.45,1.92-1.07,2.68-1.86
					c0.76-0.79,1.35-1.73,1.75-2.83c0.4-1.1,0.61-2.29,0.61-3.58c0-1.29-0.2-2.48-0.61-3.58c-0.41-1.1-0.99-2.04-1.75-2.83
					c-0.76-0.79-1.66-1.41-2.68-1.86c-1.03-0.45-2.14-0.68-3.33-0.68c-1.24,0-2.36,0.23-3.36,0.68c-1,0.45-1.88,1.07-2.65,1.86
					c-0.76,0.79-1.35,1.73-1.75,2.83c-0.41,1.1-0.61,2.29-0.61,3.58c0,1.29,0.2,2.48,0.61,3.58c0.41,1.1,0.99,2.04,1.75,2.83
					c0.76,0.79,1.65,1.41,2.65,1.86C408.6,110.04,409.72,110.27,410.96,110.27z"/>
				<path fill="#7B7BB7" d="M437.57,96.68c0-2.34,0.39-4.41,1.18-6.23c0.79-1.81,1.87-3.34,3.26-4.58c1.38-1.24,3.05-2.18,5.01-2.83
					c1.96-0.64,4.1-0.97,6.44-0.97c2.86,0,5.09,0.31,6.69,0.93c1.6,0.62,2.75,1.29,3.47,2c0.43,0.48,0.76,0.98,1,1.5
					c0.24,0.53,0.36,1.15,0.36,1.86s-0.11,1.38-0.32,2c-0.21,0.62-0.48,1.17-0.79,1.65c-0.31,0.48-0.61,0.88-0.89,1.22
					c-0.29,0.34-0.5,0.57-0.64,0.72c-0.81-0.38-1.79-0.74-2.93-1.07c-1.14-0.33-2.41-0.5-3.79-0.5c-1.81,0-3.35,0.53-4.61,1.57
					c-1.26,1.05-1.9,2.79-1.9,5.22v20.39h-11.52V96.68z"/>
			</g>
			<g>
				<path fill="#030202" d="M218.43,137.53h-4.38v-2.58h11.91v2.58h-4.37v11.09h-3.16V137.53z"/>
				<path fill="#030202" d="M242.16,146.09v2.54h-10.59v-13.67h10.33v2.54h-7.19v2.97h6.35v2.46h-6.35v3.16H242.16z"/>
				<path fill="#030202" d="M251.31,147.96c-1.13-0.61-2.01-1.45-2.66-2.52c-0.64-1.07-0.97-2.29-0.97-3.64
					c0-1.35,0.32-2.57,0.97-3.64c0.64-1.07,1.53-1.91,2.66-2.52c1.13-0.61,2.39-0.91,3.8-0.91c1.18,0,2.26,0.21,3.21,0.63
					c0.96,0.42,1.76,1.02,2.41,1.8l-2.03,1.88c-0.92-1.07-2.07-1.6-3.44-1.6c-0.85,0-1.6,0.19-2.27,0.56
					c-0.66,0.37-1.18,0.89-1.55,1.55c-0.37,0.66-0.56,1.42-0.56,2.27c0,0.85,0.19,1.6,0.56,2.27c0.37,0.66,0.89,1.18,1.55,1.55
					c0.66,0.37,1.42,0.56,2.27,0.56c1.37,0,2.51-0.54,3.44-1.62l2.03,1.88c-0.65,0.79-1.46,1.4-2.42,1.82
					c-0.96,0.42-2.04,0.63-3.22,0.63C253.69,148.86,252.43,148.56,251.31,147.96z"/>
				<path fill="#030202" d="M279.31,134.96v13.67h-3.17v-5.61h-6.21v5.61h-3.16v-13.67h3.16v5.39h6.21v-5.39H279.31z"/>
				<path fill="#030202" d="M299,134.96v13.67h-2.6l-6.82-8.3v8.3h-3.12v-13.67h2.62l6.8,8.3v-8.3H299z"/>
				<path fill="#030202" d="M306.15,134.96h3.16v13.67h-3.16V134.96z"/>
				<path fill="#030202" d="M319.22,147.96c-1.13-0.61-2.01-1.45-2.66-2.52c-0.64-1.07-0.97-2.29-0.97-3.64
					c0-1.35,0.32-2.57,0.97-3.64c0.64-1.07,1.53-1.91,2.66-2.52c1.13-0.61,2.39-0.91,3.8-0.91c1.18,0,2.26,0.21,3.21,0.63
					c0.96,0.42,1.76,1.02,2.41,1.8l-2.03,1.88c-0.92-1.07-2.07-1.6-3.44-1.6c-0.85,0-1.6,0.19-2.27,0.56
					c-0.66,0.37-1.18,0.89-1.55,1.55c-0.37,0.66-0.56,1.42-0.56,2.27c0,0.85,0.19,1.6,0.56,2.27c0.37,0.66,0.89,1.18,1.55,1.55
					c0.66,0.37,1.42,0.56,2.27,0.56c1.37,0,2.51-0.54,3.44-1.62l2.03,1.88c-0.65,0.79-1.46,1.4-2.42,1.82
					c-0.96,0.42-2.04,0.63-3.22,0.63C321.61,148.86,320.35,148.56,319.22,147.96z"/>
				<path fill="#030202" d="M343.41,145.7h-6.35l-1.21,2.93h-3.24l6.09-13.67h3.13l6.11,13.67h-3.32L343.41,145.7z M342.42,143.3
					l-2.17-5.23l-2.17,5.23H342.42z"/>
				<path fill="#030202" d="M353.28,134.96h3.16v11.09h6.86v2.58h-10.02V134.96z"/>
				<path fill="#030202" d="M371.87,145.51c0.35,0.34,0.53,0.8,0.53,1.36c0,0.26-0.03,0.52-0.1,0.78c-0.07,0.26-0.21,0.65-0.43,1.17
					l-1.11,2.81h-1.93l0.86-3.11c-0.33-0.13-0.58-0.34-0.77-0.63c-0.19-0.29-0.28-0.63-0.28-1.03c0-0.56,0.18-1.01,0.54-1.36
					c0.36-0.34,0.81-0.52,1.36-0.52C371.07,145,371.52,145.17,371.87,145.51z"/>
				<path fill="#030202" d="M388.03,134.96h3.16v11.09h6.86v2.58h-10.02V134.96z"/>
				<path fill="#030202" d="M403.73,134.96h3.16v11.09h6.86v2.58h-10.02V134.96z"/>
				<path fill="#030202" d="M421.96,147.96c-1.13-0.61-2.01-1.45-2.66-2.52c-0.64-1.07-0.97-2.29-0.97-3.64
					c0-1.35,0.32-2.57,0.97-3.64c0.64-1.07,1.53-1.91,2.66-2.52c1.13-0.61,2.39-0.91,3.8-0.91c1.18,0,2.26,0.21,3.21,0.63
					c0.96,0.42,1.76,1.02,2.41,1.8l-2.03,1.88c-0.92-1.07-2.07-1.6-3.44-1.6c-0.85,0-1.6,0.19-2.27,0.56
					c-0.66,0.37-1.18,0.89-1.55,1.55c-0.37,0.66-0.56,1.42-0.56,2.27c0,0.85,0.19,1.6,0.56,2.27c0.37,0.66,0.89,1.18,1.55,1.55
					c0.66,0.37,1.42,0.56,2.27,0.56c1.37,0,2.51-0.54,3.44-1.62l2.03,1.88c-0.65,0.79-1.46,1.4-2.42,1.82
					c-0.96,0.42-2.04,0.63-3.22,0.63C424.35,148.86,423.09,148.56,421.96,147.96z"/>
			</g>
		</g>
		<g>
			<path fill="#A1A0CE" d="M145.78,62.16c-0.78-0.58-2.53-1.36-5.3-2.39c-2.75-1.01-5.97-1.52-9.64-1.52c-3.38,0-6.4,0.76-9.06,2.26
				c-2.66,1.5-4.92,4.32-6.75,8.48c-1.48,3.22-15.95,32.92-19.43,39.88c-0.02-0.02-12.21,24.53-12.21,24.53
				c1.07,2.39,1.99,4.56,2.8,6.51h17.98c1.16-2.62,17.69-38.04,19.43-41.62l3.33,59.47h24.38L145.78,62.16z"/>
		</g>
	</g>
	<path fill="#7B7BB7" d="M341.4,82.43h1.28c0.1-0.28,0.31-0.97,0.65-2.04c0.32-1.07,0.49-2.3,0.49-3.68c0-1.87-0.39-3.37-1.18-4.51
		c-0.79-1.15-2.15-1.71-4.12-1.71h-11.48v11.94h2.42v25.19h-2.42v11.95h11.48c0.02,0,0.03,0,0.05,0h5.25v-11.95h-2.42V82.43z"/>
</g>
<g>
	<path fill="#7B7BB7" d="M95.59,108.86c-1.35-2.57-19.25-39.34-22.63-46.27c-0.86-0.77-2.61-1.69-5.22-2.76
		c-2.61-1.06-5.8-1.59-9.57-1.59c-0.46,0-0.91,0.01-1.36,0.04c-0.37,0.02-0.74,0.04-1.1,0.08c-0.51,0.05-1.02,0.12-1.51,0.2
		c-0.42,0.08-0.84,0.16-1.25,0.26c-1.65,0.38-3.12,1.04-4.43,1.96c-1.31,0.92-2.37,2.2-3.19,3.84c-0.82,1.65-1.28,3.68-1.38,6.09
		l-4.93,87.03v0.02h24.51l3.19-59.16l0.01-0.18c1.54,3.1,16.65,34.96,16.65,34.98C84.15,131.85,95.58,108.89,95.59,108.86z"/>
</g>
</svg>
