<svg xmlns="http://www.w3.org/2000/svg" class="icon" style="background-color: rgb(91, 103, 112);" viewBox="0 0 187 27" preserveAspectRatio="xMinYMin meet" x="0px" y="0px" width="187" height="27" xmlns:xml="http://www.w3.org/XML/1998/namespace" xml:space="preserve" xmlns:xlink="http://www.w3.org/1999/xlink" version="1.1">
  <path id="Fill-1" style="fill: #FFFFFF;" d="M 67.9 4.7 c 1 0 1.8 -0.8 1.8 -1.8 s -0.8 -1.8 -1.8 -1.8 s -1.8 0.8 -1.8 1.8 S 66.9 4.7 67.9 4.7"></path>
  <path style="fill: #FFFFFF;" d="M 86.4 21.1 v -11 h -5.2 h -3.8 V 8 c 0 -2 0.2 -6.8 3.1 -6.8 c 1.6 0 3 1.6 3.9 2.7 c 1 0 1.9 -0.3 1.9 -1.5 c 0 -1.8 -2.7 -2.4 -4.1 -2.4 c -2.6 0 -4.8 1.6 -6.1 3.7 c -1.1 1.8 -1.4 3.6 -1.4 5.7 L 71.8 11 v 0.3 h 2.9 v 9.5 c 0 2.7 -0.1 3.1 -2.7 3.5 c -2.5 -0.4 -2.6 -0.7 -2.6 -3.5 V 9.6 L 69 9.4 L 64.5 11 v 0.3 c 2.2 1.2 2.2 1.7 2.2 3.2 v 6.6 c 0 2.4 -0.1 3 -2 3.4 c -1.9 -0.3 -2 -0.8 -2 -3.4 v -6.2 c 0 -2 -0.2 -5.5 -4.4 -5.5 c -2.3 0 -4.2 1.2 -6.2 2.7 l 0.3 -2.5 L 52 9.5 L 47.7 11 v 0.3 c 1.8 1.2 1.7 1.7 1.7 3.2 v 6.6 c 0 2.7 -0.1 4 -0.1 4 h 5.5 v -0.5 c -2.6 -0.4 -2.8 -0.7 -2.8 -3.5 v -8.4 c 1.2 -1 2.2 -1.5 3.6 -1.5 c 4.3 0 4.2 3.4 4.2 5.9 v 4 c 0 2.7 -0.1 3.1 -2.8 3.5 v 0.5 h 6.8 h 1.5 h 6.5 h 0.3 h 8.7 v -0.5 c -3.2 -0.4 -3.4 -0.7 -3.4 -3.5 v -9.5 h 4.5 c 2 0.8 1.8 1.4 1.8 2.9 v 6.6 c 0 2.7 -0.1 3.1 -2.8 3.5 v 0.5 h 8.2 v -0.5 C 86.6 24.2 86.4 23.9 86.4 21.1 Z"></path>
  <path id="Fill-6" style="fill: #FFFFFF;" d="M 95.2 10.2 c 1.9 0 2.9 1.8 3.2 3.4 l -6.8 0.3 C 92 12.1 93.2 10.2 95.2 10.2 M 97.6 23.2 c -4 0 -6.5 -3.4 -6.2 -7 l 0.1 -1.7 h 10.2 c -0.1 -3.1 -2.3 -5.1 -5.4 -5.1 c -4.8 0 -7.9 3.8 -7.9 8.3 c 0 4.2 3 7.7 7.4 7.7 c 2.8 0 5.1 -1.8 6.5 -4 l -0.5 -0.4 C 100.7 22.4 99.4 23.2 97.6 23.2"></path>
  <path id="Fill-8" style="fill: #FFFFFF;" d="M 115.1 21.3 c -0.7 1.2 -2.4 2.4 -3.8 2.4 c -2.6 0 -5.6 -2.1 -5.6 -7.1 c 0 -2.8 1.4 -6.1 4.7 -6.1 c 1.7 0 4.8 0.9 4.8 4.9 L 115.1 21.3 L 115.1 21.3 Z M 117.8 20.7 V 0.3 l -0.4 -0.1 l -4.1 1.5 V 2 c 1.8 1.2 1.7 1.7 1.7 3.2 v 4.5 c -1 -0.2 -1.9 -0.3 -2.9 -0.3 c -5.2 0 -9.5 3.5 -9.5 8.8 c 0 3.5 2.8 7.2 6.6 7.2 c 2.4 0 4.2 -1.5 5.8 -3 v 3.3 l 5.8 -1.3 l -0.1 -0.6 C 117.8 24.3 117.8 23.9 117.8 20.7 L 117.8 20.7 Z"></path>
  <path id="Fill-10" style="fill: #FFFFFF;" d="M 134.7 23.8 c -0.7 0.2 -1.4 0.2 -2.1 0.2 c -3.8 0 -3.9 -1.9 -3.9 -5 v -7.4 h 5.6 v -1.5 h -5.6 V 6.5 h -0.3 l -4.9 4.8 l 0.2 0.2 h 2.4 V 21 c 0 2.7 -0.2 4.4 3.2 4.4 c 1.9 0 3.8 -0.5 5.6 -1.1 L 134.7 23.8 Z"></path>
  <path id="Fill-12" style="fill: #FFFFFF;" d="M 162.5 23.8 c -1.7 0 -1.4 -1.3 -1.4 -2.6 l 0.2 -11.5 l -6.2 0.5 v 0.5 c 3.2 0 3.2 1 3.2 4 v 7.5 c -1.1 0.9 -2.4 1.5 -3.9 1.5 c -4.1 0 -3.7 -4 -3.7 -5.4 V 9.8 l -4.5 0.4 c -0.3 -0.5 -0.9 -0.7 -1.5 -0.7 c -2.2 0 -4.2 2.4 -5 4.2 h -0.1 l 0.1 -4.1 l -0.4 -0.1 l -4.2 1.5 v 0.3 c 1.8 1.2 1.7 1.7 1.7 3.2 v 6.6 c 0 2.7 -0.1 3.1 -2.6 3.5 v 0.5 h 8.8 v -0.5 c -3.4 -0.4 -3.5 -0.7 -3.5 -3.5 v -3.5 c 0 -0.5 -0.2 -5.2 2.8 -5.5 c 0.8 -0.1 1.7 0.7 2.3 1.1 c 0.8 -0.4 1.8 -1.2 1.8 -2.2 c 0 -0.1 0 -0.1 0 -0.2 c 1.8 0.3 1.5 1.5 1.5 3.5 v 6.1 c 0 1.5 -0.1 5 3.9 5 c 2.4 0 4.5 -1.2 6.4 -2.5 l -0.1 2.7 l 6 -1.4 l -0.1 -0.5 L 162.5 23.8 Z"></path>
  <path id="Fill-14" style="fill: #FFFFFF;" d="M 167.7 12.7 c 0 -1.4 0.9 -2.4 2.3 -2.4 c 2 0 2.8 1.9 3.3 3.5 l 0.8 -0.1 l -0.1 -3.1 c -1.1 -0.8 -2.5 -1.1 -3.9 -1.1 c -2.5 0 -5.1 1.6 -5.1 4.3 c 0 5 7.3 4.2 7.3 8.1 c 0 1.6 -1.1 2.7 -2.7 2.7 c -2.5 0 -3.7 -2.3 -4.2 -4.4 l -0.8 0.1 l 0.3 3.8 c 1.2 0.9 2.8 1.3 4.3 1.3 c 2.9 0 5.9 -1.7 5.9 -4.8 C 175 16.2 167.7 16.3 167.7 12.7"></path>
  <path id="Fill-16" style="fill: #FFFFFF;" d="M 186.8 23.8 c -0.7 0.2 -1.4 0.2 -2.1 0.2 c -3.8 0 -3.9 -1.9 -3.9 -5 v -7.4 h 5.6 v -1.5 h -5.6 V 6.5 h -0.3 l -4.9 4.8 l 0.2 0.2 h 2.4 V 21 c 0 2.7 -0.2 4.4 3.2 4.4 c 1.9 0 3.8 -0.5 5.6 -1.1 L 186.8 23.8 Z"></path>
  <path id="Fill-18" style="fill: #FFFFFF;" d="M 40.5 18.5 V 9.9 l -5.3 0.5 v 0.5 c 2.9 0 2.6 1.2 2.6 3.6 v 6.1 c 0 1.5 -0.1 5 3.9 5 c 2.3 0 4.2 -0.5 7.6 -2.9 v -1.3 c -1 0.8 -3.8 2.5 -5.1 2.5 C 40.1 23.9 40.5 19.9 40.5 18.5"></path>
  <path id="Fill-20" style="fill: #FFFFFF;" d="M 19.3 21.5 c -1.6 0 -2.9 -0.2 -4 -0.7 c -3 0.7 -6.5 0.8 -8.7 0.6 c 1.7 3.3 5.2 5.5 9.1 5.6 c 5.6 0.1 10.3 -4.2 10.6 -9.7 C 25.6 20.2 23.4 21.6 19.3 21.5"></path>
  <path id="Fill-23" style="fill: #FFFFFF;" d="M 13.5 19.5 C 13.6 19.5 13.6 19.5 13.5 19.5 c -0.9 -1.1 -1.4 -2.7 -1.4 -5 L 12.3 7 c -3.9 1.5 -6.7 5.1 -6.7 9.5 c 0 0.9 0.1 1.8 0.3 2.6 c -2.6 0.2 -4.5 -0.1 -4.7 -1.2 c -0.3 -1.2 1 -3.1 3.3 -4.7 l 0 0 c -3 2 -4.7 4 -4.4 5.5 c 0.6 2.3 7 3.1 14 1.2 C 14 20 13.8 19.8 13.5 19.5"></path>
  <path id="Fill-25" style="fill: #FFFFFF;" d="M 26.6 7.1 c 2.9 0.1 3.9 1 3.8 2.2 c -0.1 2.2 -4.1 4.2 -8.7 5.7 l 0.1 -6.8 c -1.3 -0.9 -2.9 -1.5 -4.6 -1.7 l -0.1 8.7 c 0 1.5 0.3 2.7 2.3 2.8 c 0.5 0 0.8 -0.1 1.1 -0.2 c 5.8 -1.4 11.2 -5.6 11.1 -8.2 C 31.6 8 30.1 7.2 26.6 7.1"></path>
</svg>